/* XPM */
static char *bitcoin32[] = {
/* columns rows colors chars-per-pixel */
"32 32 186 2 ",
"   c #2B515F",
".  c #294B5B",
"X  c #004B7E",
"o  c #014D77",
"O  c #104372",
"+  c #02527D",
"@  c #155778",
"#  c #26536D",
"$  c #335C6B",
"%  c #3C697C",
"&  c #4F4E4B",
"*  c #53514F",
"=  c #5D5B59",
"-  c #686664",
";  c #6E757B",
":  c #7F7C78",
">  c #847F7B",
",  c #85807A",
"<  c #004C8C",
"1  c #005486",
"2  c #015B84",
"3  c #01538C",
"4  c #09558E",
"5  c #00588E",
"6  c #0E5983",
"7  c #175D85",
"8  c #004E94",
"9  c #025494",
"0  c #005A94",
"q  c #005699",
"w  c #0A599D",
"e  c #005999",
"r  c #105B9B",
"t  c #2A5A81",
"y  c #01628C",
"u  c #08658C",
"i  c #1D6B8D",
"p  c #006594",
"a  c #006A97",
"s  c #03669C",
"d  c #036C9C",
"f  c #176797",
"g  c #1F7399",
"h  c #26698E",
"j  c #3A6B87",
"k  c #246D90",
"l  c #347A9B",
"z  c #004BA0",
"x  c #0254A0",
"c  c #0059A3",
"v  c #1961A2",
"b  c #0172A3",
"n  c #057CAD",
"m  c #0C76A8",
"M  c #1A78A6",
"N  c #2B7AA1",
"B  c #4A778B",
"V  c #5D7884",
"C  c #447195",
"Z  c #507492",
"A  c #667D88",
"S  c #0781AF",
"D  c #1585B5",
"F  c #2B8DBB",
"G  c #2788B6",
"H  c #308EBA",
"J  c #3590BF",
"K  c #5A819C",
"L  c #648699",
"P  c #718C9B",
"I  c #498BAB",
"U  c #5C87A4",
"Y  c #5B85A8",
"T  c #5590AD",
"R  c #5C9ABA",
"E  c #6691A4",
"W  c #7996A6",
"Q  c #6F9BB4",
"!  c #6B98BC",
"~  c #76A3BF",
"^  c #3892C1",
"/  c #4297C2",
"(  c #449AC6",
")  c #4FA1CC",
"_  c #52A2CD",
"`  c #5AA7CF",
"'  c #4FA4D1",
"]  c #59AAD1",
"[  c #5FB2DD",
"{  c #7DA8C1",
"}  c #7FB4CC",
"|  c #61A9D1",
" . c #6BB8DF",
".. c #71B6DC",
"X. c #79BBDF",
"o. c #7EBDE0",
"O. c #7AC4EB",
"+. c #848281",
"@. c #8A8683",
"#. c #968E89",
"$. c #9C958E",
"%. c #889398",
"&. c #9A9694",
"*. c #979999",
"=. c #A0958E",
"-. c #A39B96",
";. c #A8A29D",
":. c #B1A59F",
">. c #839FB0",
",. c #8798A5",
"<. c #9DAAAF",
"1. c #8DAABC",
"2. c #97ACB7",
"3. c #9AB3BE",
"4. c #AAA6A3",
"5. c #ADA8A4",
"6. c #A8A8A7",
"7. c #B5AFAD",
"8. c #B4B0AC",
"9. c #A0ABB2",
"0. c #A0B5BE",
"q. c #B6B4B4",
"w. c #BAB6B3",
"e. c #BBBAB9",
"r. c #C1BAB6",
"t. c #C2BBB7",
"y. c #C6C1BD",
"u. c #86AECA",
"i. c #92AFC3",
"p. c #9BB8CA",
"a. c #8BBDD8",
"s. c #A7B7C3",
"d. c #81BEE1",
"f. c #9FC3D5",
"g. c #AEC3CC",
"h. c #B2C0C6",
"j. c #B0CCD9",
"k. c #A8C5DA",
"l. c #82C2E6",
"z. c #94CCEC",
"x. c #99CDEB",
"c. c #9DD1EE",
"v. c #93D4F7",
"b. c #A1CEE6",
"n. c #A5D1E9",
"m. c #B4D6E8",
"M. c #ACDCF6",
"N. c #A5D6F2",
"B. c #B1DEF7",
"V. c #AEE1FD",
"C. c #BBE5FD",
"Z. c #CBC6C2",
"A. c #CDC9C5",
"S. c #CDCDCC",
"D. c #C6C4C2",
"F. c #D2CDCA",
"G. c #D2C9C6",
"H. c #D7D1CD",
"J. c #DAD2CD",
"K. c #C7CED2",
"L. c #CED5D7",
"P. c #D4D3D2",
"I. c #DAD5D3",
"U. c #DCD8D5",
"Y. c #D6D9DA",
"T. c #DCDAD9",
"R. c #E3DEDA",
"E. c #E4E1DD",
"W. c #ECE2DD",
"Q. c #F0E4DF",
"!. c #C1D4E1",
"~. c #D1E1E9",
"^. c #DCE5EA",
"/. c #C2E1F3",
"(. c #C3EBFF",
"). c #DCEBF4",
"_. c #D1E7F4",
"`. c #E3E3E2",
"'. c #EDEBEB",
"]. c #ECE6E3",
"[. c #F2EEEB",
"{. c #F3F0EF",
"}. c #F7F3F1",
"|. c #FDFDFD",
" X c #F9F6F4",
".X c None",
/* pixels */
".X.X.X.X.X.X.X.X.X.X.X.X.X.X.X.X.X.X.X.X.X.X.X.X.X.X.X.X.X.X.X.X",
".X.X.X.X.X.X.X.X.X.X.X.X.X.X.X.X.X.X.X.X.X.X.X.X.X.X.X.X.X.X.X.X",
".X.X.X.X.X.X.X.X.X.X.X.X.X.X.X.X.X.X.X.X.X.X.X.X.X.X.X.X.X.X.X.X",
".X.X.X.X.X.X.X.X.X.X.X.X.X.X.X.X.X.X.X.X.X.X.X.X.X.X.X.X.X.X.X.X",
".X.X.X.X.X.X.X.X.X.X.X.Xt.w.w.q.e.S.S..X.X.X.X.X.X.X.X.X.X.X.X.X",
".X.X.X.X.X.X.X.X.X.Xy.*.V j j h P P.Y.I.]..X.X.X.X.X.X.X.X.X.X.X",
".X.X.X.X.X.X.X.XA.6.% N ` l.v.n.L.P.I.3.L T.R..X.X.X.X.X.X.X.X.X",
".X.X.X.X.X.X.XU.%.i  .V.(.C._.].R.`.^.M.] I P.Y..X.X.X.X.X.X.X.X",
".X.X.X.X.X.XI.*.g O.C.B.M./.[.'.[.).V.M.C. .I Y..X.X.X.X.X.X.X.X",
".X.X.X.X.X.Xw.k [ N.x.z.B.|. X|.~.z.x.x.z.N.' T ]..X.X.X.X.X.X.X",
".X.X.X.X.XI.B ^ ..l.o.m.|.|.|.|.).l.X.a.o.l...G 3.t..X.X.X.X.X.X",
".X.X.X.X.X6.f ) ` ( x.|.|.|. X|.|.m._ ` | ` ` ( l F..X.X.X.X.X.X",
".X.X.X.XR.A M / J a. X|.}.2.R ~.|.`.R ^ ^ / / ( f 9.> .X.X.X.X.X",
".X.X.X.XJ.j m F } [.[.].W M D j.[.].`.f.H G F H s P -..X.X.X.X.X",
".X.X.X.XZ.j s D g.Q.J.A b n } U.T.R.E.W.p.m n S p Z 5..X.X.X.X.X",
".X.X.X.XZ.C 9 b M <.A p b Q G.S.8.A <.S.Z.l b b < E 8..X.X.X.X.X",
".X.X.X.XD.U X p a u y d E w.t.-.$ + l q.r.B p p X W F..X.X.X.X.X",
".X.X.X.Xw.W o 2 y y y B :.5.#.# 1 u L ;.-.$ 2 2 + 3.8..X.X.X.X.X",
".X.X.X.X&.h.@ 1 2 2 2 7 %.=.. + 2 P :.5.&.@ 1 X h Y.- .X.X.X.X.X",
".X.X.X.X.XU.I 1 3 2 1 1 7 # o 4 W e.w.Z.L 1 1 X ~ I..X.X.X.X.X.X",
".X.X.X.X.Xw.!.4 3 3 5 0 3 3 4 >.G.y.F.Q < 3 1 f ^.@..X.X.X.X.X.X",
".X.X.X.X.X.XE.u.1 9 0 0 9 0 1.I.U.A.U 9 0 9 8 k.J..X.X.X.X.X.X.X",
".X.X.X.X.X.X.X}.! 8 q q w i.W.`.y.C q e q 9 u.].* .X.X.X.X.X.X.X",
".X.X.X.X.X.X.X+.[.~ w w i.R.E.8.t q c x v p.[.- .X.X.X.X.X.X.X.X",
".X.X.X.X.X.X.X.X- E.s.p.U.H.*.O z x r Y K.A.& .X.X.X.X.X.X.X.X.X",
".X.X.X.X.X.X.X.X.X.XA.F.`.P.; Z L ,.q.r.: .X.X.X.X.X.X.X.X.X.X.X",
".X.X.X.X.X.X.X.X.X.X.X.X= +.*.-.&.> = .X.X.X.X.X.X.X.X.X.X.X.X.X",
".X.X.X.X.X.X.X.X.X.X.X.X.X.X.X.X.X.X.X.X.X.X.X.X.X.X.X.X.X.X.X.X",
".X.X.X.X.X.X.X.X.X.X.X.X.X.X.X.X.X.X.X.X.X.X.X.X.X.X.X.X.X.X.X.X",
".X.X.X.X.X.X.X.X.X.X.X.X.X.X.X.X.X.X.X.X.X.X.X.X.X.X.X.X.X.X.X.X",
".X.X.X.X.X.X.X.X.X.X.X.X.X.X.X.X.X.X.X.X.X.X.X.X.X.X.X.X.X.X.X.X",
".X.X.X.X.X.X.X.X.X.X.X.X.X.X.X.X.X.X.X.X.X.X.X.X.X.X.X.X.X.X.X.X"
};
