/* XPM */
static char *bitcoin64[] = {
/* columns rows colors chars-per-pixel */
"48 48 207 2 ",
"   c #2B2A28",
".  c #35383A",
"X  c #403F3D",
"o  c #41403E",
"O  c #1A3D4C",
"+  c #183E5D",
"@  c #1B4050",
"#  c #254759",
"$  c #004B76",
"%  c #004B7C",
"&  c #00547D",
"*  c #00587E",
"=  c #185577",
"-  c #1A4E6E",
";  c #275974",
":  c #3C5B73",
">  c #30647B",
",  c #4B4948",
"<  c #45545A",
"1  c #5B5A59",
"2  c #575D61",
"3  c #44677B",
"4  c #5E6568",
"5  c #676869",
"6  c #6B7376",
"7  c #737272",
"8  c #7D7C7B",
"9  c #7A7775",
"0  c #827D7A",
"q  c #88817C",
"w  c #004D83",
"e  c #044F87",
"r  c #005585",
"t  c #005B85",
"y  c #00568C",
"u  c #0A5988",
"i  c #145985",
"p  c #015494",
"a  c #005993",
"s  c #01549C",
"d  c #005A9B",
"f  c #0B5A93",
"g  c #105A97",
"h  c #006187",
"j  c #00648D",
"k  c #096287",
"l  c #19668C",
"z  c #016693",
"x  c #006A97",
"c  c #016399",
"v  c #006C9C",
"b  c #176899",
"n  c #00709E",
"m  c #1C749C",
"M  c #286186",
"N  c #316689",
"B  c #38779A",
"V  c #005AA3",
"C  c #0459A6",
"Z  c #005EB2",
"A  c #086DA1",
"S  c #0074A4",
"D  c #047CAB",
"F  c #0877A9",
"G  c #177AA9",
"H  c #027FB0",
"J  c #1763A3",
"K  c #2878A8",
"L  c #3A7DA9",
"P  c #43758B",
"I  c #477B96",
"U  c #4C708B",
"Y  c #6E7A81",
"T  c #4579A5",
"R  c #3B819F",
"E  c #1D85B4",
"W  c #1985B5",
"Q  c #0581AF",
"!  c #2387B4",
"~  c #2489B6",
"^  c #258ABA",
"/  c #2D8DBC",
"(  c #328DBB",
")  c #3490BC",
"_  c #3B93BF",
"`  c #4D849F",
"'  c #568396",
"]  c #7F8C8F",
"[  c #6A899A",
"{  c #778A93",
"}  c #6E909E",
"|  c #4C8CAA",
" . c #5989A9",
".. c #5F91B5",
"X. c #5E91B9",
"o. c #5E92A9",
"O. c #6B94A9",
"+. c #7997A6",
"@. c #6A9BB8",
"#. c #6CA1B8",
"$. c #2B95C6",
"%. c #3B94C1",
"&. c #389ACA",
"*. c #3DA0CF",
"=. c #4499C4",
"-. c #469AC6",
";. c #4FA0CA",
":. c #54A3CB",
">. c #57A4CA",
",. c #49A5D3",
"<. c #5CA9D1",
"1. c #55B0DC",
"2. c #78A9C4",
"3. c #63ADD3",
"4. c #6CB2D7",
"5. c #6CB3D9",
"6. c #77B9DD",
"7. c #7BB3CF",
"8. c #7FBEE1",
"9. c #6ABAE4",
"0. c #848383",
"q. c #84888A",
"w. c #939392",
"e. c #9C9996",
"r. c #9C9B9A",
"t. c #969595",
"y. c #8D8E8E",
"u. c #A39D9A",
"i. c #A0A09F",
"p. c #869EAA",
"a. c #92A2AE",
"s. c #A5A5A3",
"d. c #ABA6A3",
"f. c #ACA9A6",
"g. c #ACACAB",
"h. c #A2A6A8",
"j. c #B2ABA6",
"k. c #B5B2AF",
"l. c #B4B3B3",
"z. c #BBB5B1",
"x. c #BCBBBB",
"c. c #B5B8B9",
"v. c #A0AEB7",
"b. c #C1BDBA",
"n. c #C2BCB7",
"m. c #C2C0BE",
"M. c #CAC3BF",
"N. c #9DBACD",
"B. c #9AB6C6",
"V. c #8EB4C9",
"C. c #A6BAC4",
"Z. c #B9BDC0",
"A. c #82BFE1",
"S. c #9EC1D1",
"D. c #ABC9D7",
"F. c #B9C8D2",
"G. c #B7C7D0",
"H. c #89C3E4",
"J. c #8DCAEB",
"K. c #87C5E8",
"L. c #93CAEA",
"P. c #99CDEC",
"I. c #9CD2F2",
"U. c #96D1F1",
"Y. c #B6D4E4",
"T. c #A2D4F1",
"R. c #ACDBF5",
"E. c #A8D7F3",
"W. c #B0DDF6",
"Q. c #B6E1FA",
"!. c #BBE4FB",
"~. c #C4C4C3",
"^. c #CAC5C2",
"/. c #CCCCCC",
"(. c #C8C9C9",
"). c #D2CECB",
"_. c #D2CBC6",
"`. c #D6D1CD",
"'. c #D9D4CF",
"]. c #C8D3DA",
"[. c #D4D4D3",
"{. c #DAD5D2",
"}. c #DBD9D6",
"|. c #DCDCDB",
" X c #D7D8D7",
".X c #E2DDDA",
"XX c #E5E0DC",
"oX c #CBDBE4",
"OX c #DADFE1",
"+X c #C7E0EE",
"@X c #D2E3ED",
"#X c #C2E9FF",
"$X c #CBE4F3",
"%X c #D2E6F1",
"&X c #D7EBF6",
"*X c #E3E3E2",
"=X c #EBE6E4",
"-X c #EDECEB",
";X c #EFE8E5",
":X c #F1EEEC",
">X c #F0E9E6",
",X c #F4F1EE",
"<X c #F3F3F3",
"1X c #FAF6F3",
"2X c #FEFEFE",
"3X c #FBF8F7",
"4X c None",
/* pixels */
"4X4X4X4X4X4X4X4X4X4X4X4X4X4X4X4X4X4X4X4X4X4X4X4X4X4X4X4X4X4X4X4X4X4X4X4X4X4X4X4X4X4X4X4X4X4X4X4X",
"4X4X4X4X4X4X4X4X4X4X4X4X4X4X4X4X4X4X4X4X4X4X4X4X4X4X4X4X4X4X4X4X4X4X4X4X4X4X4X4X4X4X4X4X4X4X4X4X",
"4X4X4X4X4X4X4X4X4X4X4X4X4X4X4X4X4X4X4X4X4X4X4X4X4X4X4X4X4X4X4X4X4X4X4X4X4X4X4X4X4X4X4X4X4X4X4X4X",
"4X4X4X4X4X4X4X4X4X4X4X4X4X4X4X4X4X4X4X4X4X4X4X4X4X4X4X4X4X4X4X4X4X4X4X4X4X4X4X4X4X4X4X4X4X4X4X4X",
"4X4X4X4X4X4X4X4X4X4X4X4X4X4X4X4X4X4X4X4X4X4X4X4X4X4X4X4X4X4X4X4X4X4X4X4X4X4X4X4X4X4X4X4X4X4X4X4X",
"4X4X4X4X4X4X4X4X4X4X4X4X4X4X4X4X4X4X4X4X4X4X4X4X4X4X4X4X4X4X4X4X4X4X4X4X4X4X4X4X4X4X4X4X4X4X4X4X",
"4X4X4X4X4X4X4X4X4X4X4X4X4X4X4X4X4X4X4X4X4X4X4X4X4X4X4X4X4X4X4X4X4X4X4X4X4X4X4X4X4X4X4X4X4X4X4X4X",
"4X4X4X4X4X4X4X4X4X4X4X4X4X4X4X4X4X4X4X4X(.[. X|.|. X/.~.4X4X4X4X4X4X4X4X4X4X4X4X4X4X4X4X4X4X4X4X",
"4X4X4X4X4X4X4X4X4X4X4X4X4X4X4X4X4X/.|.^.u.9 5 4 5 6 ~.*XOXOX*X4X4X4X4X4X4X4X4X4X4X4X4X4X4X4X4X4X",
"4X4X4X4X4X4X4X4X4X4X4X4X4X4X4X[.XXu.2 # = m K K ! +.)./.[.[.{.=X*X4X4X4X4X4X4X4X4X4X4X4X4X4X4X4X",
"4X4X4X4X4X4X4X4X4X4X4X4X4X4X-Xj.< = E ,.9.K.U.U.Y. X[.[.[._.} t.=X=X4X4X4X4X4X4X4X4X4X4X4X4X4X4X",
"4X4X4X4X4X4X4X4X4X4X4X4Xm.-X8 - W 1.U.!.!.#X#X@X}. X X|.}.Y.,.G } .X,X4X4X4X4X4X4X4X4X4X4X4X4X4X",
"4X4X4X4X4X4X4X4X4X4X4X/.=X5 l &.J.!.!.!.Q.Q.@X*X@X*X*X=X@XQ.!.J.W | _.,X4X4X4X4X4X4X4X4X4X4X4X4X",
"4X4X4X4X4X4X4X4X4X4X4X;X7 m &.T.Q.R.R.R.E.@X-X-X>X-X<X&XR.R.R.Q.T.$.| `.,X4X4X4X4X4X4X4X4X4X4X4X",
"4X4X4X4X4X4X4X4X4X4X<Xy.l &.J.E.T.T.T.T.%X1X<X<X1X,XoXI.T.T.T.T.E.L.E o..X*X4X4X4X4X4X4X4X4X4X4X",
"4X4X4X4X4X4X4X4X4X*Xz.> ^ 6.H.P.P.L.J.%X2X2X2X2X3XY.H.L.L.L.L.L.L.L.9.G p.:Xx.4X4X4X4X4X4X4X4X4X",
"4X4X4X4X4X4X4X4X4X*X6 G <.5.8.K.H.6.$X2X2X2X2X2X2X&XH.A.A.H.A.A.H.6.5.-.m b.=X4X4X4X4X4X4X4X4X4X",
"4X4X4X4X4X4X4X4X*Xk.= ~ 3.<.<.5.4.+X2X2X2X2X2X2X2X2X%X4.5.4.4.4.4.3.<.3.G ' >X0.4X4X4X4X4X4X4X4X",
"4X4X4X4X4X4X4X4X.XY c =.:.;.;.;.Y.2X2X2X2X,X=X2X2X2X2X2.;.:.>.>.:.-.:.:.( l b.(.4X4X4X4X4X4X4X4X",
"4X4X4X4X4X4X4X4X^.3 A -.=.=.| Y.2X2X3X2X{.} | D.2X3X2XC.( %.=.=.=.=.=.=.%.a { .X4X4X4X4X4X4X4X4X",
"4X4X4X4X4X4X4X*Xd.= A =.) / D.1X<X-X3X~.I ) ^ >.,X,X<X=XY.7.( ( ) ) ) ) ( c 3 [.5 4X4X4X4X4X4X4X",
"4X4X4X4X4X4X4X|.r.i A ~ ~ S.-X@X*X-Xz.P ! ~ W V.=XXX@X*X;X;XG.~ ! ~ ! ! ~ c N ^.0.4X4X4X4X4X4X4X",
"4X4X4X4X4X4X4X/.s.i c Q E (..X XOXj.> Q H F 2..X[. X X}.[.[..XB.F D Q D Q y M b.w.4X4X4X4X4X4X4X",
"4X4X4X4X4X4X4X~.l.e a F S G c.{.u.; S S S #.`./.(.`.n.z.)./.(.`.R S S S S y M x.w.4X4X4X4X4X4X4X",
"4X4X4X4X4X4X4X~.G.= w n n v m ] ; v v v O.^.b.x.(.w.# - +.m.x.^.{ x v v v % N ~.g.4X4X4X4X4X4X4X",
"4X4X4X4X4X4X4Xx.^.i % z x x x j x x x O.x.l.l.x.y.@ x v m k.l.x.q.t x x j % I ).~.4X4X4X4X4X4X4X",
"4X4X4X4X4X4X4Xk./.B $ t z j j j j j ' j.s.s.f.q O h j h ' d.s.g.6 * j j r $ O.{.l.4X4X4X4X4X4X4X",
"4X4X4X4X4X4X4Xw.M.O.$ * h h h h h k ] u.e.i.9 O k h t P r.e.e.e.< t h t & $ C.^.9 4X4X4X4X4X4X4X",
"4X4X4X4X4X4X4X4Xb.G.% & t t t t t t i y.z.q O t t & I f.f.g.f.e.; t t r & l OXx.4X4X4X4X4X4X4X4X",
"4X4X4X4X4X4X4X4Xc.|.B w r r t t r t r u 6 O r y w I z.k.g.g.x.+.r r r r % @.-Xr.4X4X4X4X4X4X4X4X",
"4X4X4X4X4X4X4X4Xw.XXN.w r y y y y y y y % y y w ` b.x.c.c.).B.i y y y y u oX|.1 4X4X4X4X4X4X4X4X",
"4X4X4X4X4X4X4X4X4X(.<XL e y y a y y y y y y y  .^.~.~.m.`.B.f y y y p e #.1Xg.4X4X4X4X4X4X4X4X4X",
"4X4X4X4X4X4X4X4X4X9 :XoXf p a a a p a a a y  .`./.(./.).a.p p a a a y K -X|., 4X4X4X4X4X4X4X4X4X",
"4X4X4X4X4X4X4X4X4X4Xg.3XN.p p a d a a a p ..}.[.[.|._.} p a a a a p J ].<X0.4X4X4X4X4X4X4X4X4X4X",
"4X4X4X4X4X4X4X4X4X4X4X/.1XV.d p s d s p ...X{. X|.M.U p d d s s s J G.1Xg.4X4X4X4X4X4X4X4X4X4X4X",
"4X4X4X4X4X4X4X4X4X4X4X4X{.:XB.J s V s X.}.[.[.|.z.: s C V d V V K (.1Xc.  4X4X4X4X4X4X4X4X4X4X4X",
"4X4X4X4X4X4X4X4X4X4X4X4X4X~.:XG.T V X.}.[./.|.d.# s C C C C C  .).,Xs.  4X4X4X4X4X4X4X4X4X4X4X4X",
"4X4X4X4X4X4X4X4X4X4X4X4X4X4Xj..X/.v.)././. Xs.+ C Z C C s U h.XX*X9 4X4X4X4X4X4X4X4X4X4X4X4X4X4X",
"4X4X4X4X4X4X4X4X4X4X4X4X4X4X4X|.[.=X*X X Xh.. - i ; 3 Y i.{.|.i.o 4X4X4X4X4X4X4X4X4X4X4X4X4X4X4X",
"4X4X4X4X4X4X4X4X4X4X4X4X4X4X4X4X4X7 i./.|.[.~.b.n.M.).{.m.q.o 4X4X4X4X4X4X4X4X4X4X4X4X4X4X4X4X4X",
"4X4X4X4X4X4X4X4X4X4X4X4X4X4X4X4X4X4X4X4X, 5 9 8 0 7 1 . 4X4X4X4X4X4X4X4X4X4X4X4X4X4X4X4X4X4X4X4X",
"4X4X4X4X4X4X4X4X4X4X4X4X4X4X4X4X4X4X4X4X4X4X4X4X4X4X4X4X4X4X4X4X4X4X4X4X4X4X4X4X4X4X4X4X4X4X4X4X",
"4X4X4X4X4X4X4X4X4X4X4X4X4X4X4X4X4X4X4X4X4X4X4X4X4X4X4X4X4X4X4X4X4X4X4X4X4X4X4X4X4X4X4X4X4X4X4X4X",
"4X4X4X4X4X4X4X4X4X4X4X4X4X4X4X4X4X4X4X4X4X4X4X4X4X4X4X4X4X4X4X4X4X4X4X4X4X4X4X4X4X4X4X4X4X4X4X4X",
"4X4X4X4X4X4X4X4X4X4X4X4X4X4X4X4X4X4X4X4X4X4X4X4X4X4X4X4X4X4X4X4X4X4X4X4X4X4X4X4X4X4X4X4X4X4X4X4X",
"4X4X4X4X4X4X4X4X4X4X4X4X4X4X4X4X4X4X4X4X4X4X4X4X4X4X4X4X4X4X4X4X4X4X4X4X4X4X4X4X4X4X4X4X4X4X4X4X",
"4X4X4X4X4X4X4X4X4X4X4X4X4X4X4X4X4X4X4X4X4X4X4X4X4X4X4X4X4X4X4X4X4X4X4X4X4X4X4X4X4X4X4X4X4X4X4X4X",
"4X4X4X4X4X4X4X4X4X4X4X4X4X4X4X4X4X4X4X4X4X4X4X4X4X4X4X4X4X4X4X4X4X4X4X4X4X4X4X4X4X4X4X4X4X4X4X4X"
};
