/* XPM */
static char *_6209_a770e0656e8cdcaba5e8dc3c89f92fae9345ef4df8611c65d96d36941347f633[] = {
/* columns rows colors chars-per-pixel */
"16 16 206 2 ",
"   c #00476F",
".  c #004E72",
"X  c #004B7C",
"o  c #004C7D",
"O  c #175B7C",
"+  c #16607E",
"@  c #746E68",
"#  c #77726D",
"$  c #7D7874",
"%  c #72797A",
"&  c #837D7A",
"*  c #87827E",
"=  c #004A85",
"-  c #004E88",
";  c #084D8D",
":  c #025280",
">  c #005782",
",  c #005684",
"<  c #005A83",
"1  c #005885",
"2  c #005089",
"3  c #00558D",
"4  c #00578D",
"5  c #005E89",
"6  c #175E8B",
"7  c #195E8A",
"8  c #005092",
"9  c #005293",
"0  c #005594",
"q  c #085797",
"w  c #095997",
"e  c #0B5B96",
"r  c #00519A",
"t  c #00519E",
"y  c #135E9F",
"u  c #00628A",
"i  c #1C6289",
"p  c #1F678F",
"a  c #006696",
"s  c #0D6091",
"d  c #006798",
"f  c #0A6E9B",
"g  c #136095",
"h  c #156594",
"j  c #176A90",
"k  c #1A6893",
"l  c #19669A",
"z  c #1E6A9D",
"x  c #1A7398",
"c  c #206A8A",
"v  c #296B8C",
"b  c #246997",
"n  c #207396",
"m  c #267395",
"M  c #27739D",
"N  c #317091",
"B  c #1F68A6",
"V  c #0778A7",
"C  c #037AAB",
"Z  c #0A7BAC",
"A  c #276CA6",
"S  c #266EA7",
"D  c #2B6FA1",
"F  c #5E7480",
"G  c #417996",
"H  c #6A7A86",
"J  c #1882AF",
"K  c #2A8CBA",
"L  c #2C8FBD",
"P  c #328AB6",
"I  c #398FBB",
"U  c #3291BE",
"Y  c #3A93BE",
"T  c #4E829B",
"R  c #598598",
"E  c #5C889C",
"W  c #628694",
"Q  c #6D879C",
"!  c #79909C",
"~  c #4389A9",
"^  c #5D92AE",
"/  c #4396BE",
"(  c #5496B8",
")  c #6C91B0",
"_  c #759FB7",
"`  c #3D96C4",
"'  c #4197C4",
"]  c #4099C7",
"[  c #4C9FC9",
"{  c #5A9CC1",
"}  c #51A1CB",
"|  c #54A2CB",
" . c #58A4C9",
".. c #5CACD5",
"X. c #64ADD1",
"o. c #63B0D7",
"O. c #7BBEE3",
"+. c #7EBEE2",
"@. c #868481",
"#. c #8C8582",
"$. c #808B8D",
"%. c #908D89",
"&. c #99948F",
"*. c #8F9294",
"=. c #81939A",
"-. c #8C9499",
";. c #979695",
":. c #9C9793",
">. c #9E9994",
",. c #959799",
"<. c #929A9D",
"1. c #9C9B9B",
"2. c #A09993",
"3. c #A39E9A",
"4. c #959DA2",
"5. c #8BA1AF",
"6. c #9DA0A1",
"7. c #93A3AA",
"8. c #90A5AF",
"9. c #8EA7B1",
"0. c #83ADBF",
"q. c #8AA9B9",
"w. c #9CB0BD",
"e. c #A2A4A6",
"r. c #A0A6A9",
"t. c #AFAEAD",
"y. c #BDADA4",
"u. c #A8B8BF",
"i. c #B7B5B4",
"p. c #BBB7B3",
"a. c #BFB9B6",
"s. c #B2B5B8",
"d. c #B7B9BA",
"f. c #B3BABD",
"g. c #B5BABD",
"h. c #B8BBBD",
"j. c #BBBBBC",
"k. c #C2B9B3",
"l. c #C4BBB6",
"z. c #C3BDBA",
"x. c #D0C5BE",
"c. c #85ACC2",
"v. c #86B0C3",
"b. c #9EBAC4",
"n. c #A3BEC9",
"m. c #B0BFC6",
"M. c #A5BED1",
"N. c #80BEE1",
"B. c #81BFE2",
"V. c #9EC2D4",
"C. c #BCC9CE",
"Z. c #A4C6D8",
"A. c #AEC6D8",
"S. c #B1CADC",
"D. c #B6CDDE",
"F. c #B4D0DE",
"G. c #85C0E2",
"H. c #89C3E4",
"J. c #B8D9EA",
"K. c #BBDCEF",
"L. c #BFDCEC",
"P. c #A4D5F2",
"I. c #A3D6F4",
"U. c #A5DCFA",
"Y. c #AEDCF8",
"T. c #B0DFFA",
"R. c #BBE7FF",
"E. c #CAC5C2",
"W. c #CBC5C2",
"Q. c #CBC7C4",
"!. c #C8C8C8",
"~. c #C9CDCF",
"^. c #D0CAC7",
"/. c #D8CEC7",
"(. c #C3CCD2",
"). c #C6CDD1",
"_. c #C5CDD2",
"`. c #C7CFD2",
"'. c #C8CED3",
"]. c #C9D1D7",
"[. c #D7D2D0",
"{. c #D7D3D1",
"}. c #D7D6D4",
"|. c #D7D6D5",
" X c #D9D4D1",
".X c #DDD7D4",
"XX c #E6DBD6",
"oX c #E3DCD6",
"OX c #E8DED7",
"+X c #E3DDD9",
"@X c #E1DDDA",
"#X c #CFDCE3",
"$X c #C9E3F3",
"%X c #D3E8F5",
"&X c #D9EBF5",
"*X c #E6E3E2",
"=X c #EAE6E4",
"-X c #EAE9E8",
";X c #EAEAEA",
":X c #EBEDEE",
">X c #EFEEED",
",X c #EAF3F8",
"<X c #F7F4F2",
"1X c #FFF9F5",
"2X c white",
"3X c None",
/* pixels */
"3X3X3X3X3Xp.6.-.4.!.|.3X3X3X3X3X",
"3X3X3Xa.=.T ( { q.{.~.u.@X3X3X3X",
"3X3XE.R  .U.R.&X=X*XL.X.0.[.3X3X",
"3XW.E ..T.P.%X<X:XK.I.Y.o.v.^.3X",
"3X7.P O.B.$X2X2X,XH.N.G.+.I m.3X",
" XG ] [ J.2X;X#X2XF.' } | ` ^ #.",
"j.k U Z.1X}.~ / >X-XV.Y K L M 1.",
"s.s J C.z.m Z n..XQ.XXb.V C h e.",
"h.6 d x c f 9.x.$.O 8.l.n a 7 d.",
"t.v < u 5 W y.% . j <.2.+ > N i.",
"3._ o 1 , i F   p r.k.! : X c.& ",
"3X_.l 2 4 3 = b f./.w.g - z '.3X",
"3X* S.q 0 9 D ).OX5.e 8 w D.$ 3X",
"3X3X>.M.y S `.oXQ r t B A.&.3X3X",
"3X3X3X:.(.].+XH ; A ) g.# 3X3X3X",
"3X3X3X3X3X@.;.*.,.%.@ 3X3X3X3X3X"
};
